<?xml version="1.0" encoding="UTF-8"?>
<svg id="Layer_1" data-name="Layer 1" xmlns="http://www.w3.org/2000/svg" viewBox="0 0 286.35 536.13">
  <defs>
    <style>
      .cls-1 {
        fill: #010101;
      }
    </style>
  </defs>
  <path class="cls-1" d="M207,265.37v264.33c0,3.56-2.94,6.44-6.5,6.44s-6.5-2.88-6.5-6.44v-264.33c0-21-6-40.92-20-57.03v46.77c0,29.13-23.85,52.45-52.99,52.45h-36.22c-29.13,0-51.8-23.32-51.8-52.45v-46.75c-13,16.05-21,36.14-21,57v264.33c0,3.56-2.44,6.44-6,6.44s-6-2.88-6-6.44v-264.32c0-28.79,11-56.28,33-75.9v-41.45c0-20.27,15.45-37.46,35.72-37.46h68.36c20.27,0,36.91,17.19,36.91,37.46v41.45c2,.8,1.73,1.61,2.55,2.43,19.63,19.63,30.45,45.72,30.45,73.47Z"/>
  <path class="cls-1" d="M286.35,117.16c0,3.52-2.84,6.39-6.35,6.44-.38,0-.76-.02-1.14-.09l-44.09-7.19-30.93,32.24c-1.23,1.29-2.92,1.98-4.65,1.98-.65,0-1.3-.1-1.94-.3-2.34-.74-4.05-2.74-4.42-5.16l-6.78-44.16-40.22-19.45c-2.21-1.07-3.62-3.29-3.64-5.74-.02-2.45,1.35-4.7,3.54-5.81l39.9-20.09,6.07-44.26c.33-2.43,2.01-4.45,4.34-5.23,2.32-.77,4.89-.16,6.61,1.57l31.44,31.74,43.98-7.91c2.41-.43,4.86.54,6.32,2.51s1.67,4.6.54,6.78l-20.47,39.71,20.93,39.05c.6.98.95,2.14.95,3.37Z"/>
</svg>