<?xml version="1.0" encoding="UTF-8"?>
<svg id="Layer_1" data-name="Layer 1" xmlns="http://www.w3.org/2000/svg" viewBox="0 0 285.75 536.13">
  <defs>
    <style>
      .cls-1 {
        fill: #010101;
      }
    </style>
  </defs>
  <path class="cls-1" d="M173,189.47v-41.44c0-20.27-16.25-36.46-36.52-36.46h-68.36c-20.27,0-35.12,16.19-35.12,36.46v41.44C11,209.09,0,236.58,0,265.37v264.33c0,3.55,2.44,6.44,6,6.44s6-2.88,6-6.44v-264.32c0-20.86,8-40.95,21-57v46.74c0,29.13,22.06,53.46,51.2,53.46h36.21c29.13,0,52.59-24.32,52.59-53.46v-46.77c15,16.11,21,36.03,21,57.03v264.33c0,3.55,2.94,6.44,6.5,6.44s6.5-2.88,6.5-6.44v-264.32c0-27.75-11.33-53.84-30.95-73.47-.82-.82-.05-1.63-3.05-2.43ZM162,255.11c0,22.03-19.56,40.46-41.59,40.46h-36.21c-22.03,0-38.2-18.42-38.2-40.46v-107.08c0-13.17,8.95-23.46,22.12-23.46h68.36c13.17,0,25.52,10.29,25.52,23.46v107.09h0Z"/>
  <path class="cls-1" d="M284.8,113.78l-20.93-39.05,20.47-39.71c1.12-2.18.91-4.81-.54-6.78-1.46-1.97-3.9-2.95-6.32-2.51l-43.97,7.91L202.06,1.91c-1.73-1.74-4.29-2.35-6.61-1.58-2.33.78-4.01,2.8-4.34,5.23l-6.07,44.26-39.9,20.1c-2.19,1.1-3.56,3.35-3.54,5.8s1.43,4.68,3.64,5.74l40.22,19.45,6.78,44.16c.37,2.42,2.09,4.42,4.42,5.16.64.2,1.29.3,1.94.3,1.73,0,3.41-.7,4.65-1.98l30.93-32.24,44.09,7.2c.38.06.76.09,1.14.08,3.52-.05,6.35-2.91,6.35-6.44,0-1.24-.35-2.39-.95-3.37ZM232.9,103.06c-2.09-.34-4.22.37-5.68,1.9l-24.24,25.27-5.32-34.61c-.32-2.1-1.65-3.9-3.56-4.82l-31.52-15.24,31.27-15.75c1.89-.95,3.2-2.78,3.48-4.88l4.76-34.69,24.64,24.88c1.49,1.51,3.63,2.18,5.71,1.81l34.46-6.2-16.04,31.12c-.97,1.88-.95,4.12.05,5.99l16.55,30.86-34.56-5.64Z"/>
</svg>